<svg width="845" height="217" viewBox="0 0 845 217" fill="none" xmlns="http://www.w3.org/2000/svg">
<g filter="url(#filter0_d)">
<path d="M37.136 3.4H5.16797L36.272 205H83.504L114.608 3.4H85.52L61.328 167.848L37.136 3.4Z" fill="#EFE8F4"/>
<path d="M175.475 32.2H230.195V3.4H143.795V205H230.195V176.2H175.475V117.16H218.963V88.36H175.475V32.2Z" fill="#EFE8F4"/>
<path d="M331.906 205H364.45V3.4H336.226V124.072L303.682 3.4H263.938V205H292.45V58.984L331.906 205Z" fill="#EFE8F4"/>
<path d="M430.62 49.768C430.62 35.368 436.956 29.896 447.036 29.896C457.116 29.896 463.452 35.368 463.452 49.768V158.632C463.452 173.032 457.116 178.504 447.036 178.504C436.956 178.504 430.62 173.032 430.62 158.632V49.768ZM398.94 156.616C398.94 188.872 415.932 207.304 447.036 207.304C478.141 207.304 495.132 188.872 495.132 156.616V51.784C495.132 19.528 478.141 1.09601 447.036 1.09601C415.932 1.09601 398.94 19.528 398.94 51.784V156.616Z" fill="#EFE8F4"/>
<path d="M573.896 3.4H529.832V205H557.48V62.44L581.096 205H611.048L632.936 60.424V205H662.888V3.4H618.824L597.224 146.536L573.896 3.4Z" fill="#EFE8F4"/>
<path d="M807.835 52.936C807.835 111.112 745.051 120.904 745.051 180.232V205H836.635V176.2H776.731C776.443 174.76 776.443 173.32 776.443 171.88C776.443 138.76 839.515 115.144 839.515 51.784C839.515 19.528 823.387 1.09601 792.283 1.09601C761.179 1.09601 745.051 19.528 745.051 51.784V71.368H775.003V49.768C775.003 35.368 781.339 29.896 791.419 29.896C801.499 29.896 807.835 34.792 807.835 52.936Z" fill="#EFE8F4"/>
<path d="M37.6306 3.32722L37.5678 2.9H37.136H5.16797H4.58491L4.67382 3.47624L35.7778 205.076L35.8432 205.5H36.272H83.504H83.9327L83.9981 205.076L115.102 3.47624L115.191 2.9H114.608H85.52H85.0882L85.0253 3.32722L61.328 164.413L37.6306 3.32722ZM218.963 87.86H175.975V32.7H230.195H230.695V32.2V3.4V2.9H230.195H143.795H143.295V3.4V205V205.5H143.795H230.195H230.695V205V176.2V175.7H230.195H175.975V117.66H218.963H219.463V117.16V88.36V87.86H218.963ZM331.424 205.13L331.523 205.5H331.906H364.45H364.95V205V3.4V2.9H364.45H336.226H335.726V3.4V120.298L304.165 3.2698L304.065 2.9H303.682H263.938H263.438V3.4V205V205.5H263.938H292.45H292.95V205V62.7511L331.424 205.13ZM574.389 3.31957L574.321 2.9H573.896H529.832H529.332V3.4V205V205.5H529.832H557.48H557.98V205V68.5178L580.603 205.082L580.672 205.5H581.096H611.048H611.478L611.542 205.075L632.436 67.067V205V205.5H632.936H662.888H663.388V205V3.4V2.9H662.888H618.824H618.394L618.33 3.32539L597.205 143.311L574.389 3.31957ZM744.551 205V205.5H745.051H836.635H837.135V205V176.2V175.7H836.635H777.149C776.944 174.449 776.943 173.188 776.943 171.88C776.943 163.763 780.807 156.185 786.698 148.353C790.696 143.038 795.588 137.652 800.79 131.927C803.263 129.205 805.806 126.406 808.355 123.502C824.144 105.514 840.015 83.652 840.015 51.784C840.015 35.5789 835.964 22.7685 827.932 14.0061C819.893 5.23659 807.935 0.596008 792.283 0.596008C776.631 0.596008 764.673 5.23659 756.635 14.0061C748.602 22.7685 744.551 35.5789 744.551 51.784V71.368V71.868H745.051H775.003H775.503V71.368V49.768C775.503 42.6301 777.075 37.8051 779.803 34.766C782.522 31.7377 786.468 30.396 791.419 30.396C796.382 30.396 800.308 31.5989 803.02 34.9277C805.753 38.2846 807.335 43.9011 807.335 52.936C807.335 81.6866 791.91 98.5265 776.273 115.597L776.075 115.814C760.383 132.946 744.551 150.355 744.551 180.232V205ZM431.12 49.768C431.12 42.6301 432.692 37.8051 435.421 34.766C438.139 31.7377 442.085 30.396 447.036 30.396C451.988 30.396 455.934 31.7377 458.652 34.766C461.381 37.8051 462.952 42.6301 462.952 49.768V158.632C462.952 165.77 461.381 170.595 458.652 173.634C455.934 176.662 451.988 178.004 447.036 178.004C442.085 178.004 438.139 176.662 435.421 173.634C432.692 170.595 431.12 165.77 431.12 158.632V49.768ZM398.44 156.616C398.44 172.827 402.711 185.638 410.96 194.399C419.214 203.164 431.385 207.804 447.036 207.804C462.688 207.804 474.859 203.164 483.112 194.399C491.362 185.638 495.632 172.827 495.632 156.616V51.784C495.632 35.5726 491.362 22.7617 483.112 14.0012C474.859 5.23611 462.688 0.596008 447.036 0.596008C431.385 0.596008 419.214 5.23611 410.96 14.0012C402.711 22.7617 398.44 35.5726 398.44 51.784V156.616Z" stroke="black"/>
<path d="M37.6306 3.32722L37.5678 2.9H37.136H5.16797H4.58491L4.67382 3.47624L35.7778 205.076L35.8432 205.5H36.272H83.504H83.9327L83.9981 205.076L115.102 3.47624L115.191 2.9H114.608H85.52H85.0882L85.0253 3.32722L61.328 164.413L37.6306 3.32722ZM218.963 87.86H175.975V32.7H230.195H230.695V32.2V3.4V2.9H230.195H143.795H143.295V3.4V205V205.5H143.795H230.195H230.695V205V176.2V175.7H230.195H175.975V117.66H218.963H219.463V117.16V88.36V87.86H218.963ZM331.424 205.13L331.523 205.5H331.906H364.45H364.95V205V3.4V2.9H364.45H336.226H335.726V3.4V120.298L304.165 3.2698L304.065 2.9H303.682H263.938H263.438V3.4V205V205.5H263.938H292.45H292.95V205V62.7511L331.424 205.13ZM574.389 3.31957L574.321 2.9H573.896H529.832H529.332V3.4V205V205.5H529.832H557.48H557.98V205V68.5178L580.603 205.082L580.672 205.5H581.096H611.048H611.478L611.542 205.075L632.436 67.067V205V205.5H632.936H662.888H663.388V205V3.4V2.9H662.888H618.824H618.394L618.33 3.32539L597.205 143.311L574.389 3.31957ZM744.551 205V205.5H745.051H836.635H837.135V205V176.2V175.7H836.635H777.149C776.944 174.449 776.943 173.188 776.943 171.88C776.943 163.763 780.807 156.185 786.698 148.353C790.696 143.038 795.588 137.652 800.79 131.927C803.263 129.205 805.806 126.406 808.355 123.502C824.144 105.514 840.015 83.652 840.015 51.784C840.015 35.5789 835.964 22.7685 827.932 14.0061C819.893 5.23659 807.935 0.596008 792.283 0.596008C776.631 0.596008 764.673 5.23659 756.635 14.0061C748.602 22.7685 744.551 35.5789 744.551 51.784V71.368V71.868H745.051H775.003H775.503V71.368V49.768C775.503 42.6301 777.075 37.8051 779.803 34.766C782.522 31.7377 786.468 30.396 791.419 30.396C796.382 30.396 800.308 31.5989 803.02 34.9277C805.753 38.2846 807.335 43.9011 807.335 52.936C807.335 81.6866 791.91 98.5265 776.273 115.597L776.075 115.814C760.383 132.946 744.551 150.355 744.551 180.232V205ZM431.12 49.768C431.12 42.6301 432.692 37.8051 435.421 34.766C438.139 31.7377 442.085 30.396 447.036 30.396C451.988 30.396 455.934 31.7377 458.652 34.766C461.381 37.8051 462.952 42.6301 462.952 49.768V158.632C462.952 165.77 461.381 170.595 458.652 173.634C455.934 176.662 451.988 178.004 447.036 178.004C442.085 178.004 438.139 176.662 435.421 173.634C432.692 170.595 431.12 165.77 431.12 158.632V49.768ZM398.44 156.616C398.44 172.827 402.711 185.638 410.96 194.399C419.214 203.164 431.385 207.804 447.036 207.804C462.688 207.804 474.859 203.164 483.112 194.399C491.362 185.638 495.632 172.827 495.632 156.616V51.784C495.632 35.5726 491.362 22.7617 483.112 14.0012C474.859 5.23611 462.688 0.596008 447.036 0.596008C431.385 0.596008 419.214 5.23611 410.96 14.0012C402.711 22.7617 398.44 35.5726 398.44 51.784V156.616Z" stroke="url(#paint0_linear)"/>
<path d="M37.6306 3.32722L37.5678 2.9H37.136H5.16797H4.58491L4.67382 3.47624L35.7778 205.076L35.8432 205.5H36.272H83.504H83.9327L83.9981 205.076L115.102 3.47624L115.191 2.9H114.608H85.52H85.0882L85.0253 3.32722L61.328 164.413L37.6306 3.32722ZM218.963 87.86H175.975V32.7H230.195H230.695V32.2V3.4V2.9H230.195H143.795H143.295V3.4V205V205.5H143.795H230.195H230.695V205V176.2V175.7H230.195H175.975V117.66H218.963H219.463V117.16V88.36V87.86H218.963ZM331.424 205.13L331.523 205.5H331.906H364.45H364.95V205V3.4V2.9H364.45H336.226H335.726V3.4V120.298L304.165 3.2698L304.065 2.9H303.682H263.938H263.438V3.4V205V205.5H263.938H292.45H292.95V205V62.7511L331.424 205.13ZM574.389 3.31957L574.321 2.9H573.896H529.832H529.332V3.4V205V205.5H529.832H557.48H557.98V205V68.5178L580.603 205.082L580.672 205.5H581.096H611.048H611.478L611.542 205.075L632.436 67.067V205V205.5H632.936H662.888H663.388V205V3.4V2.9H662.888H618.824H618.394L618.33 3.32539L597.205 143.311L574.389 3.31957ZM744.551 205V205.5H745.051H836.635H837.135V205V176.2V175.7H836.635H777.149C776.944 174.449 776.943 173.188 776.943 171.88C776.943 163.763 780.807 156.185 786.698 148.353C790.696 143.038 795.588 137.652 800.79 131.927C803.263 129.205 805.806 126.406 808.355 123.502C824.144 105.514 840.015 83.652 840.015 51.784C840.015 35.5789 835.964 22.7685 827.932 14.0061C819.893 5.23659 807.935 0.596008 792.283 0.596008C776.631 0.596008 764.673 5.23659 756.635 14.0061C748.602 22.7685 744.551 35.5789 744.551 51.784V71.368V71.868H745.051H775.003H775.503V71.368V49.768C775.503 42.6301 777.075 37.8051 779.803 34.766C782.522 31.7377 786.468 30.396 791.419 30.396C796.382 30.396 800.308 31.5989 803.02 34.9277C805.753 38.2846 807.335 43.9011 807.335 52.936C807.335 81.6866 791.91 98.5265 776.273 115.597L776.075 115.814C760.383 132.946 744.551 150.355 744.551 180.232V205ZM431.12 49.768C431.12 42.6301 432.692 37.8051 435.421 34.766C438.139 31.7377 442.085 30.396 447.036 30.396C451.988 30.396 455.934 31.7377 458.652 34.766C461.381 37.8051 462.952 42.6301 462.952 49.768V158.632C462.952 165.77 461.381 170.595 458.652 173.634C455.934 176.662 451.988 178.004 447.036 178.004C442.085 178.004 438.139 176.662 435.421 173.634C432.692 170.595 431.12 165.77 431.12 158.632V49.768ZM398.44 156.616C398.44 172.827 402.711 185.638 410.96 194.399C419.214 203.164 431.385 207.804 447.036 207.804C462.688 207.804 474.859 203.164 483.112 194.399C491.362 185.638 495.632 172.827 495.632 156.616V51.784C495.632 35.5726 491.362 22.7617 483.112 14.0012C474.859 5.23611 462.688 0.596008 447.036 0.596008C431.385 0.596008 419.214 5.23611 410.96 14.0012C402.711 22.7617 398.44 35.5726 398.44 51.784V156.616Z" stroke="url(#paint1_linear)"/>
</g>
<defs>
<filter id="filter0_d" x="0.00183105" y="0.0960083" width="844.513" height="216.208" filterUnits="userSpaceOnUse" color-interpolation-filters="sRGB">
<feFlood flood-opacity="0" result="BackgroundImageFix"/>
<feColorMatrix in="SourceAlpha" type="matrix" values="0 0 0 0 0 0 0 0 0 0 0 0 0 0 0 0 0 0 127 0"/>
<feOffset dy="4"/>
<feGaussianBlur stdDeviation="2"/>
<feColorMatrix type="matrix" values="0 0 0 0 0 0 0 0 0 0 0 0 0 0 0 0 0 0 0.25 0"/>
<feBlend mode="normal" in2="BackgroundImageFix" result="effect1_dropShadow"/>
<feBlend mode="normal" in="SourceGraphic" in2="effect1_dropShadow" result="shape"/>
</filter>
<linearGradient id="paint0_linear" x1="422.342" y1="1.09601" x2="422.342" y2="207.304" gradientUnits="userSpaceOnUse">
<stop stop-color="white"/>
<stop offset="1" stop-color="white" stop-opacity="0"/>
</linearGradient>
<linearGradient id="paint1_linear" x1="422.342" y1="1.09601" x2="422.342" y2="207.304" gradientUnits="userSpaceOnUse">
<stop stop-color="white"/>
<stop offset="1" stop-color="white" stop-opacity="0"/>
</linearGradient>
</defs>
</svg>
